<?xml version="1.0" encoding="UTF-8"?>
<svg version="1.1" xmlns="http://www.w3.org/2000/svg" width="512" height="512">
<path d="M0 0 C3.40935217 2.6133006 5.21747061 5.8031159 6 10 C6.06926968 12.75970408 6.0941736 15.49196042 6.0625 18.25 C6.05798828 18.99507812 6.05347656 19.74015625 6.04882812 20.5078125 C6.03709246 22.3385764 6.0191585 24.16929873 6 26 C6.42410156 25.29875 6.84820312 24.5975 7.28515625 23.875 C14.28848984 12.54653072 20.87326451 4.46186519 33.625 -0.375 C38.87317248 -1.34688379 43.14461048 -1.63013229 48.3125 0.125 C51.79222581 2.55271568 52.71403921 3.92779083 54 8 C54.58277794 14.66031927 54.28822524 20.70738059 52 27 C56.48509245 26.07998104 59.00181224 24.25106608 62.25 21.1875 C67.65333192 16.20190466 73.68116952 11.88442142 81.25 11.4375 C85.57290725 12.08593609 87.7287986 13.11822734 91 16 C93.15149019 19.71621033 93.05810998 22.78121533 93 27 C94.14190796 26.99723462 95.28381592 26.99446924 96.46032715 26.99162006 C124.24429094 26.92502408 152.02824438 26.87572397 179.81227112 26.84456348 C182.48698941 26.84150395 185.16170762 26.83837999 187.83642578 26.83520508 C188.50123439 26.83441815 189.166043 26.83363122 189.85099733 26.83282044 C200.60915168 26.81977392 211.36725784 26.79612425 222.12538362 26.76854161 C233.167901 26.74046638 244.21039181 26.72404376 255.25294304 26.71773452 C261.45383302 26.71382328 267.65461377 26.70462945 273.85546875 26.68280983 C279.69289205 26.66243563 285.53016118 26.65616816 291.36761665 26.66067696 C293.50896607 26.65985218 295.65032068 26.6538922 297.79163933 26.64238358 C300.71862198 26.62742506 303.645025 26.63105884 306.57202148 26.63923645 C307.41640022 26.63049793 308.26077896 26.6217594 309.13074493 26.61275607 C316.63101559 26.66927022 322.94246133 28.47585763 328.6875 33.5625 C329.39261719 34.16191406 330.09773438 34.76132812 330.82421875 35.37890625 C337.05156122 42.8807856 338.73726037 50.04855298 338.62818909 59.62001038 C338.63883067 61.31389229 338.63883067 61.31389229 338.64968723 63.04199404 C338.66720935 66.80447122 338.64919043 70.56590751 338.63110352 74.32836914 C338.63348723 77.03443709 338.64333909 79.74046667 338.65278625 82.44651794 C338.67111649 89.02027041 338.66268192 95.59372464 338.64469803 102.16746766 C338.63064451 107.51185298 338.62678512 112.8561576 338.6301403 118.20055962 C338.63085647 119.34362906 338.63085647 119.34362906 338.6315871 120.50979082 C338.63261348 122.05809592 338.63366884 123.606401 338.63475286 125.15470605 C338.64331043 138.82984075 338.62667502 152.50483189 338.59692383 166.17993164 C338.56808303 179.4368289 338.56100677 192.69351942 338.57641602 205.95043945 C338.59319165 220.40259521 338.59719895 234.85465294 338.57970566 249.30681127 C338.57786135 250.84895955 338.57602662 252.39110785 338.57420158 253.93325615 C338.57328949 254.6919343 338.5723774 255.45061244 338.57143768 256.23228084 C338.56584118 261.56820656 338.56913112 266.90408429 338.57574654 272.2400074 C338.58349224 278.74558027 338.57668265 285.25094993 338.5515715 291.75648195 C338.53910528 295.07320346 338.53505413 298.38934681 338.54411316 301.70611954 C338.55281369 305.30673525 338.5368396 308.90643411 338.5146637 312.50697327 C338.52290446 313.54783823 338.53114523 314.58870319 338.53963572 315.66110951 C338.43799523 324.61442512 335.86478806 331.76912502 329.77734375 338.4296875 C324.00990055 343.52531864 317.66649809 346.12638154 310.02562332 346.12304783 C308.51407524 346.1260344 308.51407524 346.1260344 306.97199082 346.12908131 C305.86694003 346.12616847 304.76188923 346.12325563 303.62335205 346.12025452 C302.44795482 346.12110894 301.2725576 346.12196337 300.06154227 346.12284368 C296.79831324 346.12420731 293.53512381 346.12107705 290.27189946 346.11606562 C286.75319116 346.11175114 283.23448474 346.11320826 279.71577454 346.1139679 C273.61912853 346.1144925 267.52249323 346.11135235 261.42584991 346.10573006 C252.6111045 346.09760643 243.79636426 346.09499895 234.98161551 346.09374207 C220.68061184 346.09155291 206.37961386 346.0848965 192.07861328 346.07543945 C178.18570993 346.06626182 164.29280812 346.0591827 150.39990234 346.05493164 C149.54368551 346.05466892 148.68746867 346.05440619 147.80530587 346.05413551 C143.50995997 346.05283048 139.21461405 346.05156677 134.91926813 346.05032361 C99.27950802 346.03995523 63.63975454 346.0223406 28 346 C28.20849579 346.95665054 28.41699158 347.91330109 28.63180542 348.89894104 C28.90396881 350.15633591 29.1761322 351.41373077 29.45654297 352.70922852 C29.86209915 354.57732933 29.86209915 354.57732933 30.27584839 356.48316956 C31.12960197 360.62940983 31.73722233 364.72538325 32.125 368.9375 C32.20137695 369.75629639 32.27775391 370.57509277 32.35644531 371.41870117 C35.69564316 410.45534492 33.63293483 448.42562051 22 486 C23.12535156 486.38285156 23.12535156 486.38285156 24.2734375 486.7734375 C29.86955329 489.29088787 33.68710309 494.56684041 35.9375 500.1875 C37 504 37 504 37 509 C14.89 509 -7.22 509 -30 509 C-30 475.77967626 -30 475.77967626 -28.45703125 463.96875 C-26.25200387 444.82081997 -27.53375876 421.1610288 -39.3125 405.1875 C-40.19278792 404.11208529 -41.08238567 403.04374688 -42 402 C-52.11358116 410.66878385 -55.18322363 425.20744202 -56.75 437.9375 C-57.45576608 448.26578412 -57.27845158 458.42361926 -56 468.6875 C-54.70265413 482.06637929 -55 495.55836627 -55 509 C-77.11 509 -99.22 509 -122 509 C-120.81256845 498.31311606 -118.60751154 493.74816926 -110.55078125 487.03125 C-109 486 -109 486 -107 486 C-107.19634033 485.34217529 -107.39268066 484.68435059 -107.5949707 484.0065918 C-111.71769382 470.07559175 -115.21813122 456.42600963 -117 442 C-117.13019531 441.06671875 -117.26039062 440.1334375 -117.39453125 439.171875 C-118.34800332 431.49324663 -118.08623537 423.72285662 -118 416 C-119.11375 416.33 -120.2275 416.66 -121.375 417 C-126.30739791 418.08559954 -131.15666479 418.29344644 -136.1875 418.375 C-136.9594873 418.40078125 -137.73147461 418.4265625 -138.52685547 418.453125 C-143.80978733 418.47133808 -146.87398484 417.58199242 -151 414 C-154.24023492 409.99575179 -154.37980824 406.75632806 -154.3125 401.6875 C-154.30863281 400.43324219 -154.30476563 399.17898438 -154.30078125 397.88671875 C-154 394 -154 394 -153.02563477 390.29077148 C-151.92265513 386.01333261 -151.54151174 381.86057098 -151.2890625 377.4609375 C-151.18049456 375.8227165 -151.071342 374.18453417 -150.96166992 372.54638672 C-150.90723724 371.70138611 -150.85280457 370.8563855 -150.79672241 369.98577881 C-149.79784481 354.79936004 -148.59642203 339.82969083 -145 325 C-144.79004395 324.12827148 -144.58008789 323.25654297 -144.36376953 322.35839844 C-138.09253394 297.08217656 -127.55390656 276.42882405 -109 258 C-110.43279297 257.30777344 -110.43279297 257.30777344 -111.89453125 256.6015625 C-129.4919844 247.83709888 -140.5946806 235.79060497 -147 217 C-150.12445897 206.73159579 -149.19213475 195.613228 -149 185 C-149.60038086 184.95246582 -150.20076172 184.90493164 -150.81933594 184.85595703 C-157.85768518 184.20562836 -162.59643791 182.62816263 -167.5390625 177.359375 C-172.01290315 171.551231 -173.64158639 165.3140848 -173 158 C-171.60102729 152.75129949 -169.32009516 148.28399376 -166 144 C-165.34 144 -164.68 144 -164 144 C-164.16081055 143.37883301 -164.32162109 142.75766602 -164.48730469 142.11767578 C-170.17073804 119.93120593 -174.3263025 98.31286032 -174.5 75.375 C-174.51053406 74.6739212 -174.52106812 73.97284241 -174.53192139 73.2505188 C-174.70108626 58.75411164 -172.91508968 43.3343084 -163 32 C-154.3293431 24.52269135 -145.31038382 23.18300209 -134.13671875 23.77832031 C-128.56578487 24.35629197 -123.26668334 26.15666083 -118 28 C-117.75378906 27.278125 -117.50757813 26.55625 -117.25390625 25.8125 C-113.56931304 17.54799187 -106.20974999 11.44641382 -98 8 C-97.26523438 7.68289063 -96.53046875 7.36578125 -95.7734375 7.0390625 C-79.76729931 1.20404891 -61.86405789 6.0334992 -46.90625 12.62890625 C-41.89071732 14.99510513 -36.92822927 17.45724341 -32 20 C-31.45472656 19.29875 -30.90945312 18.5975 -30.34765625 17.875 C-12.92119249 -4.04957663 -12.92119249 -4.04957663 0 0 Z " fill="#6EC07D" transform="translate(174,2)"/>
<path d="M0 0 C3.40935217 2.6133006 5.21747061 5.8031159 6 10 C6.06926968 12.75970408 6.0941736 15.49196042 6.0625 18.25 C6.05798828 18.99507812 6.05347656 19.74015625 6.04882812 20.5078125 C6.03709246 22.3385764 6.0191585 24.16929873 6 26 C6.42410156 25.29875 6.84820312 24.5975 7.28515625 23.875 C14.28848984 12.54653072 20.87326451 4.46186519 33.625 -0.375 C38.87317248 -1.34688379 43.14461048 -1.63013229 48.3125 0.125 C51.79222581 2.55271568 52.71403921 3.92779083 54 8 C54.58277794 14.66031927 54.28822524 20.70738059 52 27 C56.48509245 26.07998104 59.00181224 24.25106608 62.25 21.1875 C67.65333192 16.20190466 73.68116952 11.88442142 81.25 11.4375 C85.57290725 12.08593609 87.7287986 13.11822734 91 16 C93.36308467 19.59599841 93.26684764 23.0132723 92.6640625 27.21875 C90.15135323 37.74256766 85.24632661 47.23210302 79 56 C78.3090625 56.97582031 77.618125 57.95164063 76.90625 58.95703125 C73.86325581 63.1304335 70.84396945 67.21457406 67.203125 70.88671875 C66.29046875 71.81097656 65.3778125 72.73523438 64.4375 73.6875 C63.59058594 74.49574219 62.74367187 75.30398437 61.87109375 76.13671875 C59.25837769 80.13488341 59.58784593 83.42440492 60 88 C60.09853271 89.13348877 60.19706543 90.26697754 60.29858398 91.43481445 C60.73498364 96.07554502 61.22045697 100.7099982 61.71826172 105.34448242 C62.63197383 113.91908013 63.21950525 122.36917539 63 131 C62.19820312 131.44988281 61.39640625 131.89976562 60.5703125 132.36328125 C50.57417049 138.01869493 40.77252589 143.96765899 31 150 C30.40832031 149.25878906 29.81664062 148.51757812 29.20703125 147.75390625 C28.47871094 146.84511719 27.75039062 145.93632812 27 145 C26.44699219 144.30777344 25.89398438 143.61554688 25.32421875 142.90234375 C19.34305236 135.72208911 13.02177201 131.71407851 3.46484375 130.7421875 C-5.96788975 130.34418187 -13.80218636 133.29326988 -21.17578125 139.15625 C-25.5852012 143.61288002 -28.4895032 148.95801279 -30 155 C-38.25 155 -46.5 155 -55 155 C-56.32 152.03 -57.64 149.06 -59 146 C-63.31593468 138.51058393 -69.20546249 135.29303968 -76.875 131.625 C-86.77915242 129.64416952 -95.24673127 130.8764365 -104 136 C-108.98056925 139.90585705 -112.645963 144.1149075 -115 150 C-118.38978468 148.73171322 -121.35703574 147.27786435 -124.3984375 145.3203125 C-125.61273438 144.54494141 -125.61273438 144.54494141 -126.8515625 143.75390625 C-128.10066406 142.94759766 -128.10066406 142.94759766 -129.375 142.125 C-139.89374652 134.24234458 -139.89374652 134.24234458 -152 132 C-154.58333333 133.41666667 -154.58333333 133.41666667 -156 136 C-156.30408488 139.41502999 -156.30408488 139.41502999 -155 143 C-152.50483338 145.39310047 -149.62013401 146.98763831 -146.625 148.6875 C-145.78388672 149.19587402 -144.94277344 149.70424805 -144.07617188 150.22802734 C-140.50649977 152.38321356 -136.90584339 154.48086073 -133.28808594 156.55419922 C-131.52423464 157.5683331 -129.76702331 158.59411485 -128.01708984 159.63208008 C-126.37967219 160.60325456 -124.72666524 161.54876519 -123.05712891 162.46362305 C-118.60588806 165.11708211 -116.59337764 167.04668861 -115.1328125 172.1015625 C-114.96152832 172.92736816 -114.79024414 173.75317383 -114.61376953 174.60400391 C-112.79744304 181.69446859 -107.15027209 186.00570872 -101.24609375 189.7734375 C-93.90557784 193.78199749 -86.1956226 194.13696499 -78 193 C-70.0292102 190.55849682 -63.42818526 186.13814238 -59 179 C-57.68 176.03 -56.36 173.06 -55 170 C-46.75 170 -38.5 170 -30 170 C-29.175 171.835625 -28.35 173.67125 -27.5 175.5625 C-23.47058924 183.57413873 -18.0125673 188.99305509 -9.609375 192.33984375 C0.74889172 194.96042321 10.90164574 193.13842276 20.0234375 187.8203125 C26.17891636 183.27762286 29.52746099 175.67178887 31.78076172 168.52294922 C33.30149951 165.37611214 34.77189448 164.48498669 37.76953125 162.73046875 C38.73544189 162.15538574 39.70135254 161.58030273 40.6965332 160.98779297 C41.72480225 160.39369629 42.75307129 159.79959961 43.8125 159.1875 C44.85172607 158.5702002 45.89095215 157.95290039 46.96166992 157.31689453 C49.96730429 155.53211609 52.98186139 153.76352961 56 152 C58.61133925 150.4699527 61.21515157 148.92863693 63.8125 147.375 C64.78832031 146.80523437 65.76414063 146.23546875 66.76953125 145.6484375 C69.10742565 143.92060661 69.98397602 142.68982072 71 140 C78.48906806 141.91580811 82.13900706 146.51904756 86 153 C88.02953218 159.56215405 87.82211031 165.98074823 85 172.25 C81.72707017 178.16358913 77.22785225 181.34854071 71.3125 184.375 C68.78226087 185.05884841 66.60936636 185.04327307 64 185 C63.98541748 185.69971924 63.97083496 186.39943848 63.95581055 187.12036133 C63.88043067 190.35157443 63.78407319 193.58185352 63.6875 196.8125 C63.65366211 198.46282227 63.65366211 198.46282227 63.61914062 200.14648438 C63.08379843 216.64475763 57.46883391 231.50665746 45.8671875 243.4609375 C33.84020235 254.11153743 20.33099243 259.77370375 4.32324219 260.55419922 C3.48529491 260.59630964 2.64734764 260.63842007 1.78400803 260.68180656 C-6.86904309 261.08684907 -15.51097939 261.14558643 -24.171875 261.1328125 C-25.83514419 261.13348953 -27.49841327 261.13446284 -29.16168213 261.13571167 C-32.61023928 261.13716828 -36.05877017 261.13509976 -39.50732422 261.13037109 C-43.88283743 261.12465694 -48.25828949 261.12797657 -52.63380051 261.13394356 C-56.05542445 261.13758945 -59.47703434 261.13639256 -62.89865875 261.13381577 C-64.5106736 261.13315853 -66.12268981 261.13393171 -67.73470306 261.13629532 C-91.88412064 261.16397198 -113.97537024 260.34558733 -132.4921875 242.69921875 C-148.0086435 225.99848496 -149.39038518 206.56427685 -149 185 C-149.60038086 184.95246582 -150.20076172 184.90493164 -150.81933594 184.85595703 C-157.85768518 184.20562836 -162.59643791 182.62816263 -167.5390625 177.359375 C-172.01290315 171.551231 -173.64158639 165.3140848 -173 158 C-171.60102729 152.75129949 -169.32009516 148.28399376 -166 144 C-165.34 144 -164.68 144 -164 144 C-164.16081055 143.37883301 -164.32162109 142.75766602 -164.48730469 142.11767578 C-170.17073804 119.93120593 -174.3263025 98.31286032 -174.5 75.375 C-174.51053406 74.6739212 -174.52106812 73.97284241 -174.53192139 73.2505188 C-174.70108626 58.75411164 -172.91508968 43.3343084 -163 32 C-154.3293431 24.52269135 -145.31038382 23.18300209 -134.13671875 23.77832031 C-128.56578487 24.35629197 -123.26668334 26.15666083 -118 28 C-117.75378906 27.278125 -117.50757813 26.55625 -117.25390625 25.8125 C-113.56931304 17.54799187 -106.20974999 11.44641382 -98 8 C-97.26523438 7.68289063 -96.53046875 7.36578125 -95.7734375 7.0390625 C-79.76729931 1.20404891 -61.86405789 6.0334992 -46.90625 12.62890625 C-41.89071732 14.99510513 -36.92822927 17.45724341 -32 20 C-31.45472656 19.29875 -30.90945312 18.5975 -30.34765625 17.875 C-12.92119249 -4.04957663 -12.92119249 -4.04957663 0 0 Z " fill="#F3DC45" transform="translate(174,2)"/>
<path d="M0 0 C1.64963823 0.35213952 3.28938227 0.75274707 4.91827393 1.19094849 C16.4052827 3.76657875 28.9251101 3.03280857 40.64453125 3.015625 C42.30393488 3.01630156 43.96333841 3.01727449 45.6227417 3.01852417 C49.07841955 3.01998626 52.53407131 3.01789618 55.98974609 3.01318359 C60.36049623 3.00750532 64.73118467 3.01076288 69.10193253 3.01675606 C72.52372682 3.02041774 75.94550716 3.01919745 79.36730194 3.01662827 C80.97601072 3.01597344 82.58472088 3.01673514 84.19342804 3.01910782 C92.91726999 3.0291519 101.61327298 2.87492112 110.32714844 2.43701172 C111.12131794 2.39829012 111.91548744 2.35956852 112.73372269 2.31967354 C116.58550287 2.10684576 120.23048619 1.73492529 124.00390625 0.8828125 C131.07606447 0.15910719 137.13874239 2.6266226 143.75390625 4.8203125 C155.21026983 8.498447 166.72219499 11.77509908 178.37890625 14.7578125 C179.10122437 14.94431366 179.82354248 15.13081482 180.56774902 15.32296753 C185.36839249 16.55951141 190.17941361 17.74300289 195.00390625 18.8828125 C196.25453857 19.18155273 197.5051709 19.48029297 198.79370117 19.78808594 C208.84289608 22.01023092 218.4738108 22.34028315 228.70336914 22.39404297 C230.78434297 22.40978083 232.86456686 22.44271824 234.9453125 22.4765625 C236.15904541 22.48365234 237.37277832 22.49074219 238.62329102 22.49804688 C243.35458848 23.03654076 246.78332634 24.4176016 249.85546875 28.10546875 C251.32097081 31.64959108 251.40204431 34.49096424 251.37890625 38.3203125 C251.38664062 39.59777344 251.394375 40.87523437 251.40234375 42.19140625 C250.96837168 46.21202983 250.2802001 48.54520864 248.00390625 51.8828125 C242.87852823 55.63772623 237.53906117 55.33398029 231.44140625 55.2578125 C230.04245117 55.27521484 230.04245117 55.27521484 228.61523438 55.29296875 C219.72207815 55.25493672 219.72207815 55.25493672 216.00390625 51.8828125 C214.69140625 49.1953125 214.69140625 49.1953125 214.00390625 46.8828125 C213.20210938 47.20894531 212.4003125 47.53507812 211.57421875 47.87109375 C193.32783143 54.88416099 174.27197202 56.07827093 154.87890625 56.0078125 C154.15178436 56.00659393 153.42466248 56.00537537 152.67550659 56.00411987 C123.13008987 55.94590431 123.13008987 55.94590431 119.00390625 53.8828125 C119.50019531 54.81738281 119.99648437 55.75195312 120.5078125 56.71484375 C147.51112822 108.52749759 144.94007447 174.17898916 128.00390625 228.8828125 C128.75414062 229.13804687 129.504375 229.39328125 130.27734375 229.65625 C135.87345954 232.17370037 139.69100934 237.44965291 141.94140625 243.0703125 C143.00390625 246.8828125 143.00390625 246.8828125 143.00390625 251.8828125 C120.89390625 251.8828125 98.78390625 251.8828125 76.00390625 251.8828125 C76.00390625 218.66248876 76.00390625 218.66248876 77.546875 206.8515625 C79.75190238 187.70363247 78.47014749 164.0438413 66.69140625 148.0703125 C65.81111833 146.99489779 64.92152058 145.92655938 64.00390625 144.8828125 C53.89032509 153.55159635 50.82068262 168.09025452 49.25390625 180.8203125 C48.54814017 191.14859662 48.72545467 201.30643176 50.00390625 211.5703125 C51.30125212 224.94919179 51.00390625 238.44117877 51.00390625 251.8828125 C28.89390625 251.8828125 6.78390625 251.8828125 -15.99609375 251.8828125 C-14.8086622 241.19592856 -12.60360529 236.63098176 -4.546875 229.9140625 C-2.99609375 228.8828125 -2.99609375 228.8828125 -0.99609375 228.8828125 C-1.19243408 228.22498779 -1.38877441 227.56716309 -1.59106445 226.8894043 C-5.71378757 212.95840425 -9.21422497 199.30882213 -10.99609375 184.8828125 C-11.12628906 183.94953125 -11.25648437 183.01625 -11.390625 182.0546875 C-12.34409707 174.37605913 -12.08232912 166.60566912 -11.99609375 158.8828125 C-13.10984375 159.2128125 -14.22359375 159.5428125 -15.37109375 159.8828125 C-20.30349166 160.96841204 -25.15275854 161.17625894 -30.18359375 161.2578125 C-31.34157471 161.29648437 -31.34157471 161.29648437 -32.52294922 161.3359375 C-37.80588108 161.35415058 -40.87007859 160.46480492 -44.99609375 156.8828125 C-48.23632867 152.87856429 -48.37590199 149.63914056 -48.30859375 144.5703125 C-48.30472656 143.31605469 -48.30085938 142.06179688 -48.296875 140.76953125 C-47.99609375 136.8828125 -47.99609375 136.8828125 -47.02172852 133.17358398 C-45.91874888 128.89614511 -45.53760549 124.74338348 -45.28515625 120.34375 C-45.17658831 118.705529 -45.06743575 117.06734667 -44.95776367 115.42919922 C-44.90333099 114.58419861 -44.84889832 113.739198 -44.79281616 112.86859131 C-43.79393856 97.68217254 -42.59251578 82.71250333 -38.99609375 67.8828125 C-38.7861377 67.01108398 -38.57618164 66.13935547 -38.35986328 65.24121094 C-33.00704798 43.66668303 -24.56388567 23.18823696 -8.9765625 6.95703125 C-7.0235138 4.9986067 -7.0235138 4.9986067 -5.671875 3.08984375 C-4.02356324 0.93257958 -2.77118492 -0.16269187 0 0 Z " fill="#DEE9EE" transform="translate(67.99609375,259.1171875)"/>
<path d="M0 0 C1.0904811 0.00092179 2.1809622 0.00184359 3.30448818 0.00279331 C4.55115765 0.00141865 5.79782711 0.00004398 7.08227444 -0.00137234 C8.47653127 0.00216727 9.87078785 0.00580209 11.26504421 0.00952244 C12.72330123 0.0098043 14.18155839 0.00964659 15.63981533 0.00907993 C19.61071618 0.00879193 23.58158708 0.01468906 27.55248094 0.02165389 C31.69783233 0.02788702 35.84318434 0.02849119 39.9885397 0.0296793 C47.84377459 0.03279274 55.69899564 0.04100629 63.55422443 0.05102879 C72.49482531 0.06218954 81.43542684 0.06770028 90.37603295 0.07272422 C108.77255694 0.0831889 127.16906802 0.10078858 145.56558132 0.12304783 C145.86104432 4.82793419 146.14890119 9.53320945 146.43037319 14.23895359 C146.52668156 15.83241751 146.62489999 17.42576739 146.72523403 19.01898289 C148.85569015 52.9324751 145.57155778 85.60792243 135.56558132 118.12304783 C136.24620632 118.28804783 136.92683132 118.45304783 137.62808132 118.62304783 C143.22522508 121.48116379 147.17790198 126.50310939 149.50308132 132.31054783 C150.56558132 136.12304783 150.56558132 136.12304783 150.56558132 141.12304783 C128.45558132 141.12304783 106.34558132 141.12304783 83.56558132 141.12304783 C83.56558132 107.90272409 83.56558132 107.90272409 85.10855007 96.09179783 C87.31357745 76.9438678 86.03182256 53.28407663 74.25308132 37.31054783 C73.37279341 36.23513312 72.48319565 35.16679471 71.56558132 34.12304783 C61.45200016 42.79183168 58.38235769 57.33048984 56.81558132 70.06054783 C56.10981524 80.38883195 56.28712975 90.54666709 57.56558132 100.81054783 C58.86292719 114.18942712 58.56558132 127.6814141 58.56558132 141.12304783 C36.45558132 141.12304783 14.34558132 141.12304783 -8.43441868 141.12304783 C-7.24698713 130.43616389 -5.04193022 125.87121709 3.01480007 119.15429783 C4.56558132 118.12304783 4.56558132 118.12304783 6.56558132 118.12304783 C6.27107082 117.13631077 6.27107082 117.13631077 5.97061062 116.12963963 C1.85425407 102.22015271 -1.73775797 88.5439404 -3.43441868 74.12304783 C-3.5214304 73.3911121 -3.60844212 72.65917637 -3.69809055 71.90506077 C-4.38624368 65.64369194 -4.58062812 59.46962598 -4.56723118 53.17382908 C-4.5681879 52.1581435 -4.56914463 51.14245792 -4.57013035 50.095994 C-4.57080673 47.95893383 -4.56899053 45.82187155 -4.56478977 43.68481541 C-4.55946191 40.46170374 -4.56473896 37.23873319 -4.57113743 34.01562595 C-4.57979874 10.38915463 -4.57979874 10.38915463 -3.43441868 1.12304783 C-2.43441868 0.12304783 -2.43441868 0.12304783 0 0 Z " fill="#665E66" transform="translate(60.43441867828369,369.8769521713257)"/>
<path d="M0 0 C7.48906806 1.91580811 11.13900706 6.51904756 15 13 C17.02953218 19.56215405 16.82211031 25.98074823 14 32.25 C10.72707017 38.16358913 6.22785225 41.34854071 0.3125 44.375 C-2.21773913 45.05884841 -4.39063364 45.04327307 -7 45 C-7.02187378 46.04957886 -7.02187378 46.04957886 -7.04418945 47.12036133 C-7.11956933 50.35157443 -7.21592681 53.58185352 -7.3125 56.8125 C-7.34633789 58.46282227 -7.34633789 58.46282227 -7.38085938 60.14648438 C-7.91620157 76.64475763 -13.53116609 91.50665746 -25.1328125 103.4609375 C-37.15979765 114.11153743 -50.66900757 119.77370375 -66.67675781 120.55419922 C-67.51470509 120.59630964 -68.35265236 120.63842007 -69.21599197 120.68180656 C-77.86904309 121.08684907 -86.51097939 121.14558643 -95.171875 121.1328125 C-96.83514419 121.13348953 -98.49841327 121.13446284 -100.16168213 121.13571167 C-103.61023928 121.13716828 -107.05877017 121.13509976 -110.50732422 121.13037109 C-114.88283743 121.12465694 -119.25828949 121.12797657 -123.63380051 121.13394356 C-127.05542445 121.13758945 -130.47703434 121.13639256 -133.89865875 121.13381577 C-135.5106736 121.13315853 -137.12268981 121.13393171 -138.73470306 121.13629532 C-162.88412064 121.16397198 -184.97537024 120.34558733 -203.4921875 102.69921875 C-219.0086435 85.99848496 -220.39038518 66.56427685 -220 45 C-220.60038086 44.95246582 -221.20076172 44.90493164 -221.81933594 44.85595703 C-228.85768518 44.20562836 -233.59643791 42.62816263 -238.5390625 37.359375 C-243.01290315 31.551231 -244.64158639 25.3140848 -244 18 C-242.63282954 12.87061592 -240.57355556 7.94007408 -237 4 C-233.73769699 2.63856646 -230.44994435 1.75056041 -227 1 C-226.29133789 1.751604 -225.58267578 2.50320801 -224.85253906 3.27758789 C-222.12646001 5.87930883 -219.59957082 7.66252129 -216.359375 9.55859375 C-215.28816406 10.19216797 -214.21695313 10.82574219 -213.11328125 11.47851562 C-212.00339844 12.12498047 -210.89351562 12.77144531 -209.75 13.4375 C-205.48858496 15.93963827 -201.23611064 18.45523024 -197 21 C-196.09467529 21.54043945 -195.18935059 22.08087891 -194.2565918 22.63769531 C-193.44875244 23.14268555 -192.64091309 23.64767578 -191.80859375 24.16796875 C-191.10790771 24.60004639 -190.40722168 25.03212402 -189.68530273 25.47729492 C-186.9396801 27.95802046 -186.51959314 30.97353574 -185.71484375 34.4765625 C-183.68684622 41.6355046 -178.29545126 45.91306319 -172.24609375 49.7734375 C-164.90557784 53.78199749 -157.1956226 54.13696499 -149 53 C-141.0292102 50.55849682 -134.42818526 46.13814238 -130 39 C-128.68 36.03 -127.36 33.06 -126 30 C-117.75 30 -109.5 30 -101 30 C-100.175 31.835625 -99.35 33.67125 -98.5 35.5625 C-94.47058924 43.57413873 -89.0125673 48.99305509 -80.609375 52.33984375 C-70.25110828 54.96042321 -60.09835426 53.13842276 -50.9765625 47.8203125 C-44.82108364 43.27762286 -41.47253901 35.67178887 -39.21923828 28.52294922 C-37.69850049 25.37611214 -36.22810552 24.48498669 -33.23046875 22.73046875 C-31.78160278 21.86784424 -31.78160278 21.86784424 -30.3034668 20.98779297 C-29.27519775 20.39369629 -28.24692871 19.79959961 -27.1875 19.1875 C-26.14827393 18.5702002 -25.10904785 17.95290039 -24.03833008 17.31689453 C-21.03269571 15.53211609 -18.01813861 13.76352961 -15 12 C-12.38866075 10.4699527 -9.78484843 8.92863693 -7.1875 7.375 C-6.21167969 6.80523437 -5.23585937 6.23546875 -4.23046875 5.6484375 C-1.89257435 3.92060661 -1.01602398 2.68982072 0 0 Z " fill="#F0CFA4" transform="translate(245,142)"/>
<path d="M0 0 C6.24626524 3.66968083 10.83662611 8.43244176 14 15 C14.495 17.97 14.495 17.97 15 21 C23.25 21 31.5 21 40 21 C40.33 19.02 40.66 17.04 41 15 C45.65926276 5.90334413 53.16232687 -0.32447245 62.84765625 -3.52734375 C71.31136283 -5.38597986 79.40463841 -4.1041219 87 0 C92.80155065 4.3062214 97.16222071 8.93298672 101 15 C101.73114014 14.56131592 102.46228027 14.12263184 103.21557617 13.6706543 C114.60778809 6.83532715 114.60778809 6.83532715 126 0 C127.32898315 -0.83760864 127.32898315 -0.83760864 128.68481445 -1.69213867 C131.75683596 -3.42754089 133.52357057 -3.5794049 137 -3 C139.9375 -0.875 139.9375 -0.875 142 2 C142.15692661 5.76623876 141.49898114 7.40081363 139.09375 10.2890625 C135.098255 14.12806847 130.15291168 16.64282404 125.375 19.375 C123.39561585 20.53608765 121.41644664 21.69754181 119.4375 22.859375 C116.39886935 24.62809913 113.35401988 26.36462581 110.25 28.015625 C103.94958816 31.54248598 101.86330975 34.35016133 99.8671875 41.2890625 C97.3112633 49.27920392 91.16789522 54.13645364 84 58 C76.57416196 61.20330269 67.39208864 61.37024829 59.70703125 58.97265625 C52.7819129 55.80412935 47.02686942 51.54972737 43 45 C42.01 42.03 41.02 39.06 40 36 C31.75 36 23.5 36 15 36 C14.01 38.97 13.02 41.94 12 45 C7.3758183 52.52125939 0.37725545 57.43494587 -8 60 C-18.39680725 61.52833067 -27.25218248 60.26370445 -36 54 C-41.39370088 49.33068 -46.48547088 42.44443608 -47.1784668 35.11157227 C-48.46464988 31.80571862 -50.85713091 30.90199272 -53.87109375 29.13671875 C-54.46745132 28.78164749 -55.0638089 28.42657623 -55.67823792 28.06074524 C-57.59123002 26.92439862 -59.51361458 25.80528683 -61.4375 24.6875 C-85.34771363 10.64489605 -85.34771363 10.64489605 -87.4375 5.375 C-87 2 -87 2 -84.9375 -0.9375 C-81.34133888 -3.46246419 -80.32549757 -3.60240948 -76 -3 C-72.60282781 -1.41110436 -69.47783422 0.55790701 -66.3125 2.5625 C-65.42852539 3.1080957 -64.54455078 3.65369141 -63.63378906 4.21582031 C-61.08020209 5.7967015 -58.5385157 7.39505993 -56 9 C-54.74873226 9.78521098 -53.49743501 10.57037494 -52.24609375 11.35546875 C-49.82078271 12.88907482 -47.40437246 14.43384913 -45 16 C-44.62488281 14.65615234 -44.62488281 14.65615234 -44.2421875 13.28515625 C-41.46607089 5.94328811 -35.16152269 1.16332915 -28.1875 -2.0625 C-18.28254854 -5.68718364 -9.24336813 -5.012029 0 0 Z " fill="#474246" transform="translate(104,136)"/>
<path d="M0 0 C-0.58007812 0.3403125 -1.16015625 0.680625 -1.7578125 1.03125 C-13.9427366 8.59153294 -20.39629011 21.20964384 -23.86572266 34.94238281 C-25.33367595 41.98006767 -25.42949596 49.08302972 -25.5 56.25 C-25.51853027 57.42175781 -25.53706055 58.59351563 -25.55615234 59.80078125 C-25.49594452 68.17793241 -24.64552957 77.25906938 -19.36523438 84.12597656 C-18 86 -18 86 -18 89.375 C-20.63145166 104.14950464 -27.60689233 117.76800458 -39.859375 126.73046875 C-42.25335435 128.15025577 -44.30233047 129.27418845 -47 130 C-49.24609375 129.1015625 -49.24609375 129.1015625 -51.4375 127.625 C-55.14642643 125.37623231 -57.56585865 124.0719239 -62 125 C-65.13157632 127.20056715 -65.88498223 128.50158965 -66.75 132.25 C-66.8325 133.1575 -66.915 134.065 -67 135 C-69.31 135.33 -71.62 135.66 -74 136 C-80.87154009 115.57732218 -84.18051237 93.24775123 -84.29516602 71.74902344 C-84.30661237 70.26389991 -84.32694605 68.77881509 -84.35668945 67.29394531 C-84.65416951 52.37008526 -83.273695 36.7442435 -73 25 C-64.3293431 17.52269135 -55.31038382 16.18300209 -44.13671875 16.77832031 C-38.56578487 17.35629197 -33.26668334 19.15666083 -28 21 C-27.75378906 20.278125 -27.50757813 19.55625 -27.25390625 18.8125 C-23.52518238 10.44900722 -16.18010823 4.66035971 -8 1 C-7.05125 0.54625 -6.1025 0.0925 -5.125 -0.375 C-3 -1 -3 -1 0 0 Z " fill="#ECC32E" transform="translate(84,9)"/>
<path d="M0 0 C0.57777213 5.33363577 1.14706894 10.6680883 1.70898438 16.00341797 C1.90074382 17.8132282 2.09470108 19.62280711 2.29101562 21.43212891 C3.36110409 31.30860864 4.36580308 41.04710793 4 51 C3.19820312 51.44988281 2.39640625 51.89976562 1.5703125 52.36328125 C-8.42582951 58.01869493 -18.22747411 63.96765899 -28 70 C-28.59167969 69.25878906 -29.18335938 68.51757812 -29.79296875 67.75390625 C-30.52128906 66.84511719 -31.24960938 65.93632812 -32 65 C-32.55300781 64.30777344 -33.10601562 63.61554688 -33.67578125 62.90234375 C-39.65694764 55.72208911 -45.97822799 51.71407851 -55.53515625 50.7421875 C-64.96788975 50.34418187 -72.80218636 53.29326988 -80.17578125 59.15625 C-84.5852012 63.61288002 -87.4895032 68.95801279 -89 75 C-97.25 75 -105.5 75 -114 75 C-115.32 72.03 -116.64 69.06 -118 66 C-122.31593468 58.51058393 -128.20546249 55.29303968 -135.875 51.625 C-145.77915242 49.64416952 -154.24673127 50.8764365 -163 56 C-167.98056925 59.90585705 -171.645963 64.1149075 -174 70 C-178.84469177 68.31821351 -182.98991895 65.70402747 -187.3125 63 C-188.05306641 62.54882812 -188.79363281 62.09765625 -189.55664062 61.6328125 C-190.25595703 61.19710937 -190.95527344 60.76140625 -191.67578125 60.3125 C-192.31427002 59.91675781 -192.95275879 59.52101562 -193.6105957 59.11328125 C-194.06909912 58.74589844 -194.52760254 58.37851563 -195 58 C-195 57.34 -195 56.68 -195 56 C-193.53285639 55.11009322 -192.02360979 54.28934001 -190.5 53.5 C-177.12505956 45.67906025 -171.47307891 30.94766226 -167.6640625 16.640625 C-167.44492188 15.76921875 -167.22578125 14.8978125 -167 14 C-165.989375 14.804375 -164.97875 15.60875 -163.9375 16.4375 C-148.68702196 27.77485011 -132.75998341 34.81712641 -114 38 C-112.83210938 38.20496094 -111.66421875 38.40992188 -110.4609375 38.62109375 C-81.36602669 43.13796962 -50.70023796 38.68431168 -26 22 C-22.17878688 19.16066151 -18.56490373 16.15336312 -15 13 C-14.08863281 12.19820312 -13.17726562 11.39640625 -12.23828125 10.5703125 C-9.00862724 7.69427024 -5.8092061 4.82342764 -2.77734375 1.73828125 C-1 0 -1 0 0 0 Z " fill="#EFCFA3" transform="translate(233,82)"/>
<path d="M0 0 C4.9845008 4.0188193 10.36454078 7.20770398 15.85546875 10.484375 C19.72071692 12.79998476 23.57519469 15.13165619 27.41796875 17.484375 C28.29831787 18.01305176 29.17866699 18.54172852 30.08569336 19.08642578 C30.89401611 19.59157715 31.70233887 20.09672852 32.53515625 20.6171875 C33.6022583 21.27291748 33.6022583 21.27291748 34.69091797 21.94189453 C37.47715989 24.43037014 37.89100334 27.42581968 38.703125 30.9609375 C40.99753568 39.06033259 47.54438715 43.37331858 54.41796875 47.484375 C55.90296875 48.474375 55.90296875 48.474375 57.41796875 49.484375 C57.80273438 51.47705078 57.80273438 51.47705078 57.82421875 53.9296875 C57.84379639 54.83388428 57.86337402 55.73808105 57.88354492 56.66967773 C57.89490479 57.63977783 57.90626465 58.60987793 57.91796875 59.609375 C58.44581414 77.06789668 60.67086198 97.2469949 73.41796875 110.484375 C75.36138582 112.24587403 77.35348237 113.86227856 79.41796875 115.484375 C79.41796875 115.814375 79.41796875 116.144375 79.41796875 116.484375 C58.2392872 117.16849193 40.46725179 116.19952119 23.66796875 101.796875 C12.31664797 90.97916332 4.79937426 75.74397585 4.34521484 59.95507812 C4.25702889 53.79693644 4.30649742 47.64187953 4.41796875 41.484375 C3.81758789 41.43684082 3.21720703 41.38930664 2.59863281 41.34033203 C-4.43971643 40.69000336 -9.17846916 39.11253763 -14.12109375 33.84375 C-18.5949344 28.035606 -20.22361764 21.7984598 -19.58203125 14.484375 C-18.05813818 8.76699516 -15.77665789 2.49837875 -10.60546875 -0.76171875 C-6.25326818 -2.68356677 -3.70987612 -3.19056509 0 0 Z " fill="#F0B986" transform="translate(20.58203125,145.515625)"/>
<path d="M0 0 C1.54127826 0.31090162 3.07676014 0.65176983 4.60546875 1.01953125 C5.78786133 1.26799805 5.78786133 1.26799805 6.99414062 1.52148438 C8.9326997 1.93269387 10.86376032 2.37897569 12.79296875 2.83203125 C12.426875 3.37085938 12.06078125 3.9096875 11.68359375 4.46484375 C-6.22500211 31.66885365 -18.27416184 60.85003988 -24.20703125 92.83203125 C-24.42230469 93.93546875 -24.63757813 95.03890625 -24.859375 96.17578125 C-26.64702371 106.30144112 -26.83904227 116.57675941 -27.20703125 126.83203125 C-22.91703125 126.83203125 -18.62703125 126.83203125 -14.20703125 126.83203125 C-14.20703125 137.39203125 -14.20703125 147.95203125 -14.20703125 158.83203125 C-20.8615097 160.31080424 -25.83270996 161.19584315 -32.39453125 161.20703125 C-33.16216797 161.23152344 -33.92980469 161.25601563 -34.72070312 161.28125 C-40.00949104 161.30844171 -43.07719831 160.41733807 -47.20703125 156.83203125 C-50.44726617 152.82778304 -50.58683949 149.58835931 -50.51953125 144.51953125 C-50.51566406 143.26527344 -50.51179688 142.01101563 -50.5078125 140.71875 C-50.20703125 136.83203125 -50.20703125 136.83203125 -49.23266602 133.12280273 C-48.12968638 128.84536386 -47.74854299 124.69260223 -47.49609375 120.29296875 C-47.38752581 118.65474775 -47.27837325 117.01656542 -47.16870117 115.37841797 C-47.11426849 114.53341736 -47.05983582 113.68841675 -47.00375366 112.81781006 C-46.00487606 97.63139129 -44.80345328 82.66172208 -41.20703125 67.83203125 C-40.9970752 66.96030273 -40.78711914 66.08857422 -40.57080078 65.19042969 C-34.91651511 42.40082513 -25.80728372 21.76550047 -9.20703125 4.83203125 C-8.47613281 3.89101563 -7.74523438 2.95 -6.9921875 1.98046875 C-3.93130488 -0.3806609 -3.59651685 -0.4573857 0 0 Z " fill="#B5D0D5" transform="translate(70.20703125,259.16796875)"/>
<path d="M0 0 C0.97484848 0.00222061 1.94969696 0.00444122 2.9540863 0.00672913 C4.05515213 0.00680466 5.15621796 0.00688019 6.29064941 0.00695801 C7.48854599 0.01211929 8.68644257 0.01728058 9.92063904 0.02259827 C11.14000656 0.02401321 12.35937408 0.02542816 13.61569214 0.02688599 C17.52856349 0.03250485 21.4413786 0.04506055 25.35423279 0.05775452 C27.99941426 0.06276709 30.64459662 0.06733041 33.28977966 0.07142639 C39.79045005 0.08248041 46.2910874 0.09923688 52.79173279 0.12025452 C53.57953921 1.84102232 54.36596901 3.5624204 55.15184021 5.28407288 C55.58993515 6.24260666 56.02803009 7.20114044 56.47940063 8.1887207 C58.47220025 12.64030672 60.29959271 17.15232031 62.10423279 21.68275452 C62.46323669 22.57027405 62.8222406 23.45779358 63.19212341 24.37220764 C63.53050232 25.21847717 63.86888123 26.0647467 64.21751404 26.93666077 C64.52084656 27.69406555 64.82417908 28.45147034 65.13670349 29.23182678 C65.79173279 31.12025452 65.79173279 31.12025452 65.79173279 33.12025452 C54.54373966 31.07968939 43.8661092 28.19647019 32.79173279 25.12025452 C32.79173279 51.85025452 32.79173279 78.58025452 32.79173279 106.12025452 C54.57173279 106.12025452 76.35173279 106.12025452 98.79173279 106.12025452 C98.79173279 106.45025452 98.79173279 106.78025452 98.79173279 107.12025452 C50.28173279 107.12025452 1.77173279 107.12025452 -48.20826721 107.12025452 C-48.20826721 106.79025452 -48.20826721 106.46025452 -48.20826721 106.12025452 C-26.42826721 106.12025452 -4.64826721 106.12025452 17.79173279 106.12025452 C17.79173279 79.39025452 17.79173279 52.66025452 17.79173279 25.12025452 C6.40673279 28.09025452 6.40673279 28.09025452 -5.20826721 31.12025452 C-8.50826721 31.78025452 -11.80826721 32.44025452 -15.20826721 33.12025452 C-13.1107118 25.71114751 -10.53853045 18.66468594 -7.58326721 11.55775452 C-7.17592346 10.56195374 -6.76857971 9.56615295 -6.34889221 8.54017639 C-2.89284032 0.15753398 -2.89284032 0.15753398 0 0 Z " fill="#B3CDD2" transform="translate(106.20826721191406,262.87974548339844)"/>
<path d="M0 0 C0.91330078 -0.00619858 1.82660156 -0.01239716 2.76757812 -0.01878357 C4.6939996 -0.02587145 6.62048246 -0.02272576 8.546875 -0.01000977 C11.4907313 0.00386257 14.43141168 -0.03023636 17.375 -0.06835938 C19.25000078 -0.06931057 21.12500552 -0.06745172 23 -0.0625 C23.87720703 -0.07575821 24.75441406 -0.08901642 25.65820312 -0.10267639 C30.08618001 -0.03535552 31.94087616 0.1359363 35.5546875 2.91821289 C37.5 5.56640625 37.5 5.56640625 38.125 8.56640625 C37.2706487 12.66729251 35.77296178 13.98435822 32.5 16.56640625 C29.57613709 17.00541053 27.25959055 17.15599522 24.35546875 17.0546875 C23.58568192 17.04761276 22.81589508 17.04053802 22.02278137 17.0332489 C19.57667697 17.0053755 17.13290616 16.94265762 14.6875 16.87890625 C13.02412173 16.85381393 11.36070738 16.83100238 9.69726562 16.81054688 C5.63061843 16.75557296 1.56570411 16.66935552 -2.5 16.56640625 C-2.64099121 17.63753662 -2.78198242 18.70866699 -2.92724609 19.81225586 C-3.34920406 22.57800504 -3.80596072 24.99643025 -4.6640625 27.6328125 C-4.89561035 28.35452637 -5.1271582 29.07624023 -5.36572266 29.81982422 C-5.61628418 30.58182129 -5.8668457 31.34381836 -6.125 32.12890625 C-6.66668372 33.80989034 -7.20834965 35.49088016 -7.75 37.171875 C-8.17732422 38.48744385 -8.17732422 38.48744385 -8.61328125 39.82958984 C-10.13545233 44.52770048 -11.62878584 49.23497834 -13.125 53.94140625 C-13.57153931 55.34326172 -13.57153931 55.34326172 -14.02709961 56.7734375 C-15.60116235 61.71911191 -17.16157802 66.66816382 -18.6875 71.62890625 C-18.99042969 72.60859375 -19.29335938 73.58828125 -19.60546875 74.59765625 C-20.2562556 76.75747289 -20.88033552 78.92539167 -21.48828125 81.09765625 C-21.82214844 82.26296875 -22.15601563 83.42828125 -22.5 84.62890625 C-22.78875 85.67175781 -23.0775 86.71460938 -23.375 87.7890625 C-24.63358692 90.89619895 -25.88236777 92.4908583 -28.5 94.56640625 C-32.1544543 95.08847115 -34.40575382 95.29660515 -37.53125 93.2109375 C-40.56361055 89.13770716 -41.34651545 84.64463361 -42.5 79.75390625 C-43.01267031 77.68350692 -43.52569201 75.61319457 -44.0390625 73.54296875 C-44.2855957 72.52879883 -44.53212891 71.51462891 -44.78613281 70.46972656 C-45.76036509 66.50749323 -46.80970866 62.56744892 -47.875 58.62890625 C-48.19210937 57.44425781 -48.50921875 56.25960937 -48.8359375 55.0390625 C-49.05507813 54.22308594 -49.27421875 53.40710938 -49.5 52.56640625 C-50.60859375 52.540625 -51.7171875 52.51484375 -52.859375 52.48828125 C-54.32295547 52.43198969 -55.78649562 52.37464258 -57.25 52.31640625 C-57.97960937 52.30222656 -58.70921875 52.28804687 -59.4609375 52.2734375 C-62.96629539 52.11410305 -65.12714231 51.84077323 -67.984375 49.73828125 C-70.2157469 46.54074832 -70.04304989 44.3677555 -69.5 40.56640625 C-67.43725597 37.8894945 -66.26357333 36.7094325 -62.90625 36.08056641 C-61.9471875 36.08878418 -60.988125 36.09700195 -60 36.10546875 C-58.4221875 36.11126953 -58.4221875 36.11126953 -56.8125 36.1171875 C-55.719375 36.14167969 -54.62625 36.16617188 -53.5 36.19140625 C-52.406875 36.19269531 -51.31375 36.19398437 -50.1875 36.1953125 C-40.92290094 36.29749558 -40.92290094 36.29749558 -37.5 38.56640625 C-34.49300527 44.21955634 -33.07546722 50.38744614 -31.5 56.56640625 C-28.93114771 50.22850019 -26.51230142 43.91187686 -24.6875 37.31640625 C-22.7386826 30.32918289 -20.68999914 23.37643017 -18.5625 16.44140625 C-18.23854248 15.33764648 -17.91458496 14.23388672 -17.58081055 13.09667969 C-17.09414917 11.53095215 -17.09414917 11.53095215 -16.59765625 9.93359375 C-16.31414307 8.99628418 -16.03062988 8.05897461 -15.73852539 7.09326172 C-12.27700795 0.0310292 -7.0505704 -0.03986506 0 0 Z " fill="#DCE9EC" transform="translate(439.5,50.43359375)"/>
<path d="M0 0 C2.5 1.3125 2.5 1.3125 4 4 C4.12323996 11.53044169 2.21215589 18.4803624 -0.125 25.5625 C-2.80184161 33.99205713 -5.24948615 42.4467723 -7.5 51 C-9.6793024 59.23968778 -11.98134178 67.42000771 -14.5 75.5625 C-17.11989568 84.0357525 -19.57963481 92.53893767 -21.94433594 101.08666992 C-25.67611584 114.5229169 -29.58382211 127.90882402 -33.46923828 141.30126953 C-36.04442453 150.18412615 -38.61057074 159.06488072 -41 168 C-46.28 167.67 -51.56 167.34 -57 167 C-55.70550002 159.97812695 -53.97334501 153.29945897 -51.8125 146.5 C-49.17911638 138.04661727 -46.75956123 129.56066602 -44.5 121 C-42.07419416 111.82545183 -39.4403355 102.7454549 -36.625 93.68359375 C-34.41115552 86.49848241 -32.42215091 79.26813311 -30.5 72 C-28.07641964 62.83583675 -25.45262088 53.76353788 -22.6315918 44.71435547 C-19.99078829 36.16565278 -17.68727202 27.53654364 -15.484375 18.86523438 C-13.88367188 12.71374002 -12.21907461 6.53512752 -9 1 C-5.90826248 -0.54586876 -3.40570448 -0.29359521 0 0 Z " fill="#665F66" transform="translate(354,115)"/>
<path d="M0 0 C1.00023193 0.00523682 2.00046387 0.01047363 3.03100586 0.01586914 C4.1105957 0.0190918 5.19018555 0.02231445 6.30249023 0.02563477 C8.00695312 0.03820312 8.00695312 0.03820312 9.74584961 0.05102539 C11.45611328 0.05779297 11.45611328 0.05779297 13.20092773 0.06469727 C16.02845312 0.07652792 18.85587601 0.09301129 21.68334961 0.11352539 C21.48999023 1.08290039 21.29663086 2.05227539 21.09741211 3.05102539 C20.83411246 4.40513787 20.57110824 5.75930782 20.30834961 7.11352539 C20.11885742 8.05711914 20.11885742 8.05711914 19.92553711 9.01977539 C17.19324957 23.2276706 16.28086049 37.1803799 16.30834961 51.61352539 C16.30756409 52.49639221 16.30677856 53.37925903 16.30596924 54.28887939 C16.32810383 75.24374776 18.81599705 95.5224861 22.68334961 116.11352539 C17.73334961 116.44352539 12.78334961 116.77352539 7.68334961 117.11352539 C4.78252428 110.96697829 2.65973116 105.1000165 1.12084961 98.48852539 C0.92555664 97.72024414 0.73026367 96.95196289 0.52905273 96.16040039 C-3.6512126 78.56788309 -4.781483 60.71436046 -4.59790039 42.69458008 C-4.56637842 39.58671055 -4.55686569 36.47935271 -4.55102539 33.37133789 C-4.42351794 0.21677056 -4.42351794 0.21677056 0 0 Z " fill="#464146" transform="translate(60.316650390625,369.886474609375)"/>
<path d="M0 0 C4.73857329 3.14149859 8.06247052 7.25911096 10.546875 12.3359375 C12.37934283 22.31270679 10.20094711 30.18820832 4.62890625 38.64550781 C1.34723102 43.37869323 -2.06828933 48.00803939 -5.54956055 52.59594727 C-6.71362089 54.16053083 -7.80889444 55.77584167 -8.890625 57.3984375 C-7.02857422 57.31142578 -7.02857422 57.31142578 -5.12890625 57.22265625 C-3.48701686 57.17574512 -1.84508668 57.13024641 -0.203125 57.0859375 C0.61349609 57.04404297 1.43011719 57.00214844 2.27148438 56.95898438 C6.72418675 56.8688487 8.51830155 56.93938816 12.15234375 59.76171875 C14.109375 62.3984375 14.109375 62.3984375 14.734375 64.8984375 C13.80553239 68.61380795 12.07709513 70.01714433 9.109375 72.3984375 C6.18001264 72.89810345 3.84347445 73.10213991 0.921875 73.0625 C-0.24831177 73.06967545 -0.24831177 73.06967545 -1.44213867 73.07699585 C-3.08612086 73.08038758 -4.73017115 73.07123581 -6.37402344 73.05029297 C-8.88369795 73.02351142 -11.38890129 73.0500595 -13.8984375 73.08203125 C-15.50000982 73.07872702 -17.10157938 73.07232049 -18.703125 73.0625 C-19.44908936 73.07262115 -20.19505371 73.08274231 -20.96362305 73.09317017 C-24.93369698 73.00431927 -26.71888182 72.53532093 -29.86035156 70.03149414 C-31.890625 67.3984375 -31.890625 67.3984375 -32.5625 64.60546875 C-31.57633811 59.89826576 -29.04572234 56.84674927 -26.140625 53.0859375 C-24.95095341 51.49283645 -23.76217361 49.89906911 -22.57421875 48.3046875 C-21.96433105 47.49515625 -21.35444336 46.685625 -20.72607422 45.8515625 C-17.8239944 41.97285832 -15.00759444 38.03552194 -12.203125 34.0859375 C-11.6987793 33.38750732 -11.19443359 32.68907715 -10.67480469 31.96948242 C-5.97118055 25.42635176 -5.97118055 25.42635176 -5.265625 17.5859375 C-5.471875 16.5340625 -5.678125 15.4821875 -5.890625 14.3984375 C-7.32718354 14.31712287 -8.7650733 14.25910191 -10.203125 14.2109375 C-11.00363281 14.17613281 -11.80414063 14.14132813 -12.62890625 14.10546875 C-15.43314049 14.46871153 -16.18138296 15.19279882 -17.890625 17.3984375 C-18.40625 18.4296875 -18.921875 19.4609375 -19.453125 20.5234375 C-20.890625 23.3984375 -20.890625 23.3984375 -22.890625 24.3984375 C-26.72677457 24.75363653 -29.03692134 24.94568344 -32.328125 22.8359375 C-34.55259229 19.36576853 -34.50141222 17.4703523 -33.890625 13.3984375 C-30.92304389 6.60976744 -25.8750825 1.76757439 -19.578125 -1.9765625 C-12.68168832 -3.58038498 -6.36547595 -3.18273798 0 0 Z " fill="#DDE9ED" transform="translate(469.890625,83.6015625)"/>
<path d="M0 0 C0.33 0 0.66 0 1 0 C1 9.9 1 19.8 1 30 C-21.11 30 -43.22 30 -66 30 C-64.81256845 19.31311606 -62.60751154 14.74816926 -54.55078125 8.03125 C-53 7 -53 7 -51 7 C-50.67 6.01 -50.34 5.02 -50 4 C-50 4.66 -50 5.32 -50 6 C-49.43645813 5.83734146 -48.87291626 5.67468292 -48.29229736 5.50709534 C-45.88921266 4.97549195 -43.78230917 4.87971893 -41.32324219 4.88647461 C-40.40258972 4.88655014 -39.48193726 4.88662567 -38.53338623 4.88670349 C-37.54783752 4.89186478 -36.56228882 4.89702606 -35.546875 4.90234375 C-34.53151672 4.9037587 -33.51615845 4.90517365 -32.47003174 4.90663147 C-29.22999108 4.91222484 -25.99001975 4.92477615 -22.75 4.9375 C-20.55208433 4.94251586 -18.35416758 4.94707861 -16.15625 4.95117188 C-10.77080971 4.9621921 -5.38540981 4.97892367 0 5 C0 3.35 0 1.7 0 0 Z " fill="#A9593D" transform="translate(118,481)"/>
<path d="M0 0 C6.52913015 -0.06910487 13.05697634 -0.12876973 19.58618164 -0.16479492 C21.8043245 -0.17982277 24.02243793 -0.20025077 26.24047852 -0.22631836 C29.44034108 -0.26296624 32.63980861 -0.27978688 35.83984375 -0.29296875 C36.82145981 -0.30845261 37.80307587 -0.32393646 38.81443787 -0.33988953 C45.85959746 -0.34158727 52.2609962 0.57383058 58.26953125 4.47265625 C64.04681157 10.42544888 67 16.65757198 67 25 C44.89 25 22.78 25 0 25 C0 16.75 0 8.5 0 0 Z " fill="#A9583D" transform="translate(144,486)"/>
<path d="M0 0 C6.57288285 0.27969714 11.11743846 2.59273206 16 7 C26.96793636 20.74762946 29.39299118 36.06551433 29.375 53.1875 C29.37693359 55.09438599 29.37693359 55.09438599 29.37890625 57.03979492 C29.27016289 66.72598643 27.97215139 74.80490663 25 84 C20.38 84 15.76 84 11 84 C11.9375 71.54464286 11.9375 71.54464286 12.5625 65.75 C14.44763213 44.33366283 13.45245813 20.68037354 0 3 C0 2.01 0 1.02 0 0 Z " fill="#474247" transform="translate(133,402)"/>
<path d="M0 0 C10.89 0 21.78 0 33 0 C33 10.56 33 21.12 33 32 C26.34552155 33.47877299 21.37432129 34.3638119 14.8125 34.375 C14.04486328 34.39949219 13.27722656 34.42398438 12.48632812 34.44921875 C7.19754021 34.47641046 4.12983294 33.58530682 0 30 C-3.19169648 26.03394678 -3.40619253 22.82929843 -3.375 17.8125 C-3.38273437 16.58144531 -3.39046875 15.35039062 -3.3984375 14.08203125 C-3 10 -3 10 0 0 Z " fill="#F1B987" transform="translate(23,386)"/>
<path d="M0 0 C0.495 0.99 0.495 0.99 1 2 C0.25105469 2.350625 -0.49789062 2.70125 -1.26953125 3.0625 C-4.70272583 5.4986438 -5.99844429 8.27476662 -7.6875 12 C-8.37859508 13.44087905 -9.07137925 14.88094886 -9.765625 16.3203125 C-10.12720703 17.07989258 -10.48878906 17.83947266 -10.86132812 18.62207031 C-25.49626693 49.1847427 -25.49626693 49.1847427 -38.61328125 53.94921875 C-51.99559303 57.60950374 -51.99559303 57.60950374 -58.5 54.125 C-59.7375 53.073125 -59.7375 53.073125 -61 52 C-61 51.34 -61 50.68 -61 50 C-59.39117673 48.9414845 -57.73514105 47.95448378 -56.0625 47 C-45.10058177 40.1979892 -38.26967438 29.5487312 -31.00390625 19.140625 C-14.29440938 -4.44158891 -14.29440938 -4.44158891 0 0 Z " fill="#ECC32E" transform="translate(174,2)"/>
<path d="M0 0 C4.02009457 -0.07455949 8.03991733 -0.12879358 12.06054688 -0.16479492 C13.42617816 -0.17981428 14.79176176 -0.20023608 16.15722656 -0.22631836 C18.12803905 -0.26300137 20.09921408 -0.27818551 22.0703125 -0.29296875 C23.25383301 -0.3086792 24.43735352 -0.32438965 25.65673828 -0.34057617 C30.38526369 0.14111603 33.78825152 1.54539054 36.8515625 5.22265625 C38.31706456 8.76677858 38.39813806 11.60815174 38.375 15.4375 C38.38660156 17.35369141 38.38660156 17.35369141 38.3984375 19.30859375 C37.96446543 23.32921733 37.27629385 25.66239614 35 29 C29.87462198 32.75491373 24.53515492 32.45116779 18.4375 32.375 C17.50486328 32.38660156 16.57222656 32.39820313 15.61132812 32.41015625 C6.83655126 32.37263048 6.83655126 32.37263048 3 29 C0.34993776 25.28870647 -0.36577105 22.79972864 -0.29296875 18.26171875 C-0.28330078 17.19501953 -0.27363281 16.12832031 -0.26367188 15.02929688 C-0.23853516 13.92650391 -0.21339844 12.82371094 -0.1875 11.6875 C-0.17396484 10.56537109 -0.16042969 9.44324219 -0.14648438 8.28710938 C-0.1112138 5.52424771 -0.06192235 2.76237171 0 0 Z " fill="#F0CFA4" transform="translate(281,282)"/>
<path d="M0 0 C14.43096407 1.80868083 14.43096407 1.80868083 20.125 3.0625 C31.72251905 5.48318173 43.76624874 5.2144141 55.56396484 5.24023438 C58.23176344 5.2499337 60.89878729 5.28106424 63.56640625 5.3125 C73.52226349 5.37185692 82.86510561 4.67318637 92.62011719 2.64746094 C96 2 96 2 100 2 C100 3.98 100 5.96 100 8 C81.65127248 16.20181637 61.91964968 17.19515961 42.0625 17.125 C40.98006516 17.12367065 40.98006516 17.12367065 39.87576294 17.12231445 C28.22735369 17.10553767 16.62418027 16.79095273 5 16 C4.1605118 13.89828133 3.32860344 11.79353375 2.5 9.6875 C2.0359375 8.51574219 1.571875 7.34398437 1.09375 6.13671875 C0 3 0 3 0 0 Z " fill="#B4D0D4" transform="translate(181,298)"/>
<path d="M0 0 C0.77923828 0.59748047 0.77923828 0.59748047 1.57421875 1.20703125 C2.27160156 1.73683594 2.96898438 2.26664062 3.6875 2.8125 C4.71423828 3.59560547 4.71423828 3.59560547 5.76171875 4.39453125 C7.9701822 6.08851197 7.9701822 6.08851197 10.609375 7.18554688 C13 9 13 9 13.56762695 12.00268555 C13.54144287 13.2019165 13.51525879 14.40114746 13.48828125 15.63671875 C13.47216797 16.93544922 13.45605469 18.23417969 13.43945312 19.57226562 C13.39767609 20.94402699 13.35535135 22.31577177 13.3125 23.6875 C13.28741745 25.07092382 13.26460418 26.45439077 13.24414062 27.83789062 C13.18510827 31.22634764 13.10280082 34.61263385 13 38 C12.32380615 38.32105713 11.6476123 38.64211426 10.95092773 38.97290039 C9.61203491 39.62246704 9.61203491 39.62246704 8.24609375 40.28515625 C7.3636499 40.70933838 6.48120605 41.13352051 5.57202148 41.57055664 C-0.44307461 44.9135455 -4.37180128 49.66140308 -7 56 C-11.84469177 54.31821351 -15.98991895 51.70402747 -20.3125 49 C-21.05306641 48.54882812 -21.79363281 48.09765625 -22.55664062 47.6328125 C-23.25595703 47.19710937 -23.95527344 46.76140625 -24.67578125 46.3125 C-25.31427002 45.91675781 -25.95275879 45.52101562 -26.6105957 45.11328125 C-27.06909912 44.74589844 -27.52760254 44.37851563 -28 44 C-28 43.34 -28 42.68 -28 42 C-26.53285639 41.11009322 -25.02360979 40.28934001 -23.5 39.5 C-10.12505956 31.67906025 -4.47307891 16.94766226 -0.6640625 2.640625 C-0.44492188 1.76921875 -0.22578125 0.8978125 0 0 Z " fill="#EFB885" transform="translate(66,96)"/>
<path d="M0 0 C5.27782519 2.11113007 8.49951463 4.84974654 11 10 C11.81047683 15.42508367 11.7015966 20.39217445 9.5 25.4375 C5.08210716 29.96584016 0.88184832 33.24428988 -5.625 33.5625 C-10.74045054 33.23729095 -13.93391728 31.19486294 -17.44140625 27.46875 C-21.31359488 22.96774442 -22.41871885 20.26867562 -22.34375 14.44921875 C-21.56940139 8.93198491 -18.29718987 5.23541892 -14.375 1.5 C-9.49954531 -0.66686875 -5.24810609 -0.86229505 0 0 Z " fill="#DCE7EC" transform="translate(180,148)"/>
<path d="M0 0 C4.88986336 2.41276153 7.80902726 6.42013958 9.90625 11.37890625 C10.66913402 16.81445489 9.588685 20.61974738 6.90625 25.37890625 C2.69697045 29.71485393 -0.69591234 32.51442304 -6.84375 32.69140625 C-11.7259951 32.63512677 -14.35248246 31.6747848 -18.09375 28.37890625 C-22.88234286 22.94320625 -23.50149389 19.59260739 -23.44140625 12.43359375 C-22.80449828 6.83739114 -19.9724214 4.09181253 -15.96875 0.44140625 C-10.82301241 -1.46027938 -5.27670697 -1.56529181 0 0 Z " fill="#DCE6EB" transform="translate(95.09375,148.62109375)"/>
<path d="M0 0 C7.48906806 1.91580811 11.13900706 6.51904756 15 13 C17.02953218 19.56215405 16.82211031 25.98074823 14 32.25 C10.72707017 38.16358913 6.22785225 41.34854071 0.3125 44.375 C-2 45 -2 45 -7 45 C-7 33.12 -7 21.24 -7 9 C-7.66 8.67 -8.32 8.34 -9 8 C-7.329375 7.13375 -7.329375 7.13375 -5.625 6.25 C-2.66807857 4.57739798 -1.07684279 3.35017758 0 0 Z " fill="#EFB885" transform="translate(245,142)"/>
<path d="M0 0 C1.67577275 1.87526951 3.02686327 3.88023484 4.44921875 5.953125 C7.39039626 9.83518297 10.59435358 11.62202609 15.38671875 12.375 C21.30409005 12.66497838 26.28360577 11.71594697 31 8 C32.62426544 5.94416645 34.08076139 3.81473061 35.55859375 1.65234375 C37 0 37 0 40.1875 -0.6875 C43 0 43 0 44.875 1.125 C46.63530047 4.05883412 46.57579188 5.60922561 46 9 C42.29226687 15.80430146 36.39267028 21.19453806 29.234375 24.13671875 C21.46742465 26.20978159 11.92753583 26.40719781 4.5 23.0625 C-1.02069794 19.8117337 -6.11631845 14.7673631 -9 9 C-9.44720497 3.74534161 -9.44720497 3.74534161 -7.875 1.125 C-4.89786653 -0.66128008 -3.41301706 -0.73614093 0 0 Z " fill="#DA4C55" transform="translate(113,199)"/>
<path d="M0 0 C9.57 0 19.14 0 29 0 C29 0.33 29 0.66 29 1 C25.7 1.33 22.4 1.66 19 2 C16.83246732 11.06895673 17.10847476 21.14470395 20 30 C22.97 30.33 25.94 30.66 29 31 C29 31.33 29 31.66 29 32 C25.6043303 32.08745946 22.20895227 32.14054444 18.8125 32.1875 C17.37293945 32.22520508 17.37293945 32.22520508 15.90429688 32.26367188 C6.75210161 32.35867736 6.75210161 32.35867736 3 29 C0.35198594 25.28698879 -0.36578328 22.80049122 -0.29296875 18.26171875 C-0.28547607 17.29967529 -0.2779834 16.33763184 -0.27026367 15.34643555 C-0.24295166 14.13898682 -0.21563965 12.93153809 -0.1875 11.6875 C-0.125625 7.830625 -0.06375 3.97375 0 0 Z " fill="#EEB886" transform="translate(281,282)"/>
<path d="M0 0 C10.89 0 21.78 0 33 0 C33 10.56 33 21.12 33 32 C29.04 32.66 25.08 33.32 21 34 C15.22798078 26.30397437 14.08411294 20.72981317 15 11 C16.05671884 7.44684059 17.41433705 4.36953377 19 1 C12.73 1 6.46 1 0 1 C0 0.67 0 0.34 0 0 Z " fill="#EFCFA5" transform="translate(23,386)"/>
<path d="M0 0 C-3 2 -3 2 -5.3125 3.1875 C-13.31323765 8.58334632 -16.51838368 16.86124596 -20.2109375 25.4375 C-22.72290013 31.02141693 -24.77724633 34.67265627 -30 38 C-32.96823194 38.74335756 -34.87206312 38.35894358 -38 38 C-38.99 37.34 -39.98 36.68 -41 36 C-40.35181716 28.09216935 -40.35181716 28.09216935 -37 25 C-35.87001671 23.43498682 -34.76797251 21.84959608 -33.6875 20.25 C-25.20230595 8.08788853 -15.88311337 -0.64829034 0 0 Z " fill="#EBC42F" transform="translate(218,1)"/>
<path d="M0 0 C0.33 0.66 0.66 1.32 1 2 C1.54140625 1.83628906 2.0828125 1.67257812 2.640625 1.50390625 C5.40222593 0.91409413 7.92818139 0.90390692 10.75 0.9375 C11.73484375 0.94652344 12.7196875 0.95554687 13.734375 0.96484375 C14.85585937 0.98224609 14.85585937 0.98224609 16 1 C16.33 1.66 16.66 2.32 17 3 C16.48050781 3.29132813 15.96101563 3.58265625 15.42578125 3.8828125 C9.5756053 7.32154808 5.14031038 10.4089419 3.03125 17.05078125 C2.27869368 20.01571377 1.63185135 23.00701992 1 26 C-4.28 26 -9.56 26 -15 26 C-14.62731262 18.04933589 -12.84483433 12.87790817 -7.18359375 7.16796875 C-2.50805035 3 -2.50805035 3 0 3 C0 2.01 0 1.02 0 0 Z " fill="#934D36" transform="translate(67,485)"/>
<path d="M0 0 C0.495 0.33 0.99 0.66 1.5 1 C1.5 1.66 1.5 2.32 1.5 3 C0.1078125 3.495 0.1078125 3.495 -1.3125 4 C-5.82825172 5.93661497 -9.53192095 8.80972004 -13.453125 11.734375 C-16.72546449 14.16765308 -20.03430182 16.53698784 -23.375 18.875 C-24.42429688 19.61492188 -25.47359375 20.35484375 -26.5546875 21.1171875 C-30.95798476 23.93202739 -34.25609744 25.29965157 -39.5 25 C-38.39863014 17.10684932 -38.39863014 17.10684932 -36.5 14 C-34.85656745 13.56398728 -33.20921893 13.13844787 -31.546875 12.78125 C-28.8476806 11.75102313 -27.27691536 10.17318552 -25.1875 8.1875 C-18.20877579 1.67165035 -9.70434213 -3.88173685 0 0 Z " fill="#ECC42F" transform="translate(261.5,15)"/>
<path d="M0 0 C2.53541298 0.09086451 5.03554784 0.2370945 7.5625 0.4375 C8.62887695 0.51581055 8.62887695 0.51581055 9.71679688 0.59570312 C11.47821999 0.72574107 13.23916173 0.86226897 15 1 C14.38186692 5.8701394 13.47755677 10.5009464 12.1875 15.25 C11.87167969 16.45140625 11.55585938 17.6528125 11.23046875 18.890625 C9.9192755 22.20398953 9.09032093 23.32509324 6 25 C1.95462494 25.68857448 0.47940938 25.32640639 -2.9375 23 C-5 20 -5 20 -5 16.375 C-4.70823999 14.90778382 -4.36910122 13.44969359 -4 12 C-3.64421875 10.55173828 -3.64421875 10.55173828 -3.28125 9.07421875 C-1.25218914 1.25218914 -1.25218914 1.25218914 0 0 Z " fill="#666066" transform="translate(288,313)"/>
<path d="M0 0 C0.66 0.33 1.32 0.66 2 1 C-0.26262636 3.32065386 -2.53643006 5.63003599 -4.8125 7.9375 C-5.77639648 8.9265332 -5.77639648 8.9265332 -6.75976562 9.93554688 C-7.38173828 10.56396484 -8.00371094 11.19238281 -8.64453125 11.83984375 C-9.50075073 12.71177368 -9.50075073 12.71177368 -10.37426758 13.60131836 C-12 15 -12 15 -15 16 C-14.31352678 12.82260966 -13.51763348 9.88616612 -12 7 C-8.625 5.75 -8.625 5.75 -5 5 C-2.1020938 2.52140971 -2.1020938 2.52140971 0 0 Z " fill="#E4C737" transform="translate(237,22)"/>
<path d="M0 0 C0.66 0.33 1.32 0.66 2 1 C-2.29 5.29 -6.58 9.58 -11 14 C-11 10.30159372 -10.17133056 9.68584567 -7.75 7 C-7.14671875 6.319375 -6.5434375 5.63875 -5.921875 4.9375 C-4.06233388 3.06284066 -2.15205789 1.52358081 0 0 Z " fill="#F0CD33" transform="translate(198,6)"/>
<path d="M0 0 C1.65 0 3.3 0 5 0 C4.04663979 1.31611677 3.08714226 2.62778961 2.125 3.9375 C1.59132812 4.66839844 1.05765625 5.39929687 0.5078125 6.15234375 C-1 8 -1 8 -3 9 C-2.01 6.03 -1.02 3.06 0 0 Z " fill="#7AC377" transform="translate(225,29)"/>
</svg>
